<svg xmlns="http://www.w3.org/2000/svg" width="752" height="692" viewBox="0 0 752 692" version="1.1"><path d="M 520.397 510 C 520.397 517.975, 520.553 521.237, 520.743 517.250 C 520.932 513.263, 520.932 506.738, 520.743 502.750 C 520.553 498.762, 520.397 502.025, 520.397 510 M 458.768 609.725 C 460.565 609.947, 463.265 609.943, 464.768 609.715 C 466.271 609.486, 464.800 609.304, 461.500 609.310 C 458.200 609.315, 456.971 609.502, 458.768 609.725" stroke="none" fill="#666578" fill-rule="evenodd"/><path d="M 123.481 424 C 123.481 478.725, 123.602 501.112, 123.750 473.750 C 123.898 446.387, 123.898 401.612, 123.750 374.250 C 123.602 346.887, 123.481 369.275, 123.481 424 M 520.478 410.500 C 520.478 457.800, 520.600 477.004, 520.750 453.175 C 520.899 429.346, 520.899 390.646, 520.750 367.175 C 520.600 343.704, 520.478 363.200, 520.478 410.500 M 120.481 423.500 C 120.481 477.400, 120.602 499.303, 120.750 472.174 C 120.898 445.045, 120.898 400.945, 120.750 374.174 C 120.602 347.403, 120.481 369.600, 120.481 423.500 M 441.784 609.738 C 444.689 609.941, 449.189 609.939, 451.784 609.734 C 454.378 609.528, 452 609.363, 446.500 609.365 C 441 609.368, 438.878 609.536, 441.784 609.738" stroke="none" fill="#737183" fill-rule="evenodd"/><path d="M 458.119 81.102 C 450.499 82.064, 446.554 84.452, 436 94.494 C 431.875 98.418, 425.987 103.235, 422.916 105.196 C 415.872 109.695, 413 113.303, 413 117.650 C 413 119.509, 415.505 128.560, 418.566 137.765 L 424.133 154.500 429.476 154.500 L 434.818 154.500 435.400 150.880 C 436.206 145.866, 451.461 116.023, 454.678 113.166 C 458.096 110.131, 462.726 110.501, 481.434 115.306 C 498.004 119.561, 500.375 120.995, 500.816 127.023 L 501.132 131.346 503.978 126.362 C 506.705 121.588, 518.092 110, 520.057 110 C 521.545 110, 521.156 103.202, 519.483 99.967 C 517.661 96.443, 514.493 94.755, 506.500 93.048 C 499.281 91.506, 495.369 89.606, 492.011 86.012 C 490.119 83.986, 487.889 83.046, 482.998 82.213 C 473.307 80.561, 465.252 80.202, 458.119 81.102 M 551 487.682 C 546.325 488.505, 537.663 490.736, 531.750 492.639 L 521 496.100 521 510.082 C 521 528.259, 519.298 532.764, 510.790 537.106 C 507.947 538.557, 504.935 539, 497.909 539 L 488.738 539 489.257 542.250 C 489.542 544.038, 491.936 560.462, 494.578 578.750 L 499.382 612 542.691 612 C 566.511 612, 586 611.772, 586 611.492 C 586 609.903, 574.951 493.775, 574.464 490.250 L 573.877 486 566.689 486.093 C 562.735 486.144, 555.675 486.860, 551 487.682 M 399.545 543.250 C 398.651 549.840, 393.116 608.449, 393.365 608.698 C 393.487 608.820, 413.461 609.050, 437.753 609.210 L 481.920 609.500 482.456 604.500 C 482.751 601.750, 483.669 588.250, 484.495 574.500 C 485.321 560.750, 486.255 547.138, 486.571 544.250 L 487.144 539 443.633 539 L 400.123 539 399.545 543.250" stroke="none" fill="#2f2e41" fill-rule="evenodd"/><path d="M 505.630 190.250 C 505.299 191.488, 505.021 195.286, 505.014 198.691 C 505.006 202.096, 504.578 205.143, 504.063 205.461 C 503.355 205.898, 448.973 216, 447.326 216 C 446.547 216, 447.095 210.690, 448.060 208.888 C 448.643 207.799, 448.980 205.561, 448.810 203.915 C 448.515 201.067, 448.017 201.499, 438.500 212.856 L 428.500 224.791 404.935 236.289 C 389.168 243.982, 380.838 248.598, 379.765 250.236 C 376.845 254.693, 370.707 278.580, 365.371 306.250 L 364.841 309 436.083 309 L 507.324 309 511.575 311.491 C 513.913 312.861, 516.878 315.674, 518.163 317.741 L 520.500 321.500 520.771 408.250 C 520.921 455.963, 521.233 495, 521.465 495 C 521.696 495, 525.849 493.679, 530.693 492.065 C 541.075 488.605, 554.057 486.059, 565.948 485.152 L 574.500 484.500 575.311 463 C 575.757 451.175, 575.908 412.587, 575.647 377.250 C 575.387 341.913, 575.349 313, 575.564 313 C 575.779 313, 579.638 316.837, 584.140 321.526 C 590.399 328.045, 594.014 330.886, 599.504 333.600 C 608.828 338.208, 613.377 338.812, 619.237 336.219 C 623.189 334.471, 624.198 333.344, 627.119 327.410 C 630.338 320.871, 630.484 320.069, 630.846 306.869 L 631.223 293.133 621.433 275.317 C 607.198 249.412, 597.477 232.558, 591.700 223.765 C 586.309 215.558, 582.760 213.239, 577.214 214.300 C 575.562 214.615, 569.939 213.158, 562.169 210.402 C 555.344 207.981, 549.364 206, 548.880 206 C 548.396 206, 548 208.756, 548 212.125 C 548 219.413, 551.597 228.606, 556.560 234 C 560.428 238.205, 562.508 242.162, 564.033 248.215 L 565.170 252.732 589.311 264.362 C 616.493 277.456, 614.070 275.291, 620.329 292.071 C 626.795 309.408, 627.133 320.858, 621.245 323.097 C 611.844 326.671, 589.426 312.641, 570.326 291.232 C 566.042 286.429, 561.853 282.607, 561.018 282.737 C 560.183 282.867, 556.251 283.483, 552.281 284.104 C 548.310 284.726, 543.519 284.945, 541.634 284.591 C 534.846 283.318, 527.228 272.006, 521.941 255.353 C 519.950 249.079, 519.832 247.820, 520.978 245.053 C 522.362 241.711, 528.351 236.340, 533.750 233.599 C 537.459 231.716, 537.643 230.529, 535.402 222.981 C 533.642 217.054, 534.341 212.661, 538.070 206.219 L 539.969 202.939 537.734 202.102 C 536.505 201.641, 532.575 200.209, 529 198.918 C 525.425 197.628, 519.060 194.643, 514.856 192.286 C 510.652 189.929, 506.992 188, 506.722 188 C 506.453 188, 505.962 189.012, 505.630 190.250 M 144.557 348.223 C 142.462 351.214, 142.597 353.597, 145 356 C 146.963 357.963, 148.333 358, 218.277 358 C 296.787 358, 294 358.220, 294 352.015 C 294 345.674, 298.089 346, 218.485 346 L 146.113 346 144.557 348.223 M 457.223 379.557 C 454.583 381.405, 454.239 386.096, 456.571 388.429 C 457.885 389.742, 461.137 390, 476.416 390 C 492.850 390, 494.857 389.816, 496.345 388.171 C 498.570 385.712, 498.432 382.432, 496 380 C 494.154 378.154, 492.667 378, 476.723 378 C 462.703 378, 459.026 378.294, 457.223 379.557 M 451.999 405.247 L 452 407.994 299.250 408.300 C 159.710 408.580, 161.548 408.596, 320.500 408.480 C 416.200 408.411, 495.310 407.993, 496.299 407.551 C 497.289 407.110, 497.958 406.017, 497.787 405.124 C 497.514 403.700, 494.678 403.438, 474.736 403 L 451.998 402.500 451.999 405.247 M 457.223 449.557 C 454.583 451.405, 454.239 456.096, 456.571 458.429 C 457.885 459.742, 461.137 460, 476.416 460 C 492.850 460, 494.857 459.816, 496.345 458.171 C 498.570 455.712, 498.432 452.432, 496 450 C 494.154 448.154, 492.667 448, 476.723 448 C 462.703 448, 459.026 448.294, 457.223 449.557 M 333 474.994 C 333 476.986, 333.587 477, 415.573 477 C 493.676 477, 498.128 476.905, 497.810 475.250 C 497.492 473.603, 492.645 473.485, 415.236 473.244 C 333.502 472.990, 333 473.001, 333 474.994 M 192.826 478.750 C 218.855 478.898, 261.155 478.898, 286.826 478.750 C 312.497 478.601, 291.200 478.480, 239.500 478.480 C 187.800 478.480, 166.797 478.601, 192.826 478.750 M 228.829 535.750 C 279.611 535.893, 362.411 535.893, 412.829 535.750 C 463.248 535.607, 421.700 535.489, 320.500 535.489 C 219.300 535.489, 178.048 535.607, 228.829 535.750 M 405.250 609.735 C 407.863 609.941, 412.137 609.941, 414.750 609.735 C 417.363 609.529, 415.225 609.360, 410 609.360 C 404.775 609.360, 402.637 609.529, 405.250 609.735" stroke="none" fill="#e6e6e6" fill-rule="evenodd"/><path d="M 0 346.001 L 0 692.003 376.250 691.751 L 752.500 691.500 752.751 345.750 L 753.003 0 376.501 0 L 0 0 0 346.001 M 0.494 346.500 C 0.494 536.800, 0.609 614.501, 0.750 519.169 C 0.891 423.837, 0.891 268.137, 0.750 173.169 C 0.609 78.201, 0.494 156.200, 0.494 346.500 M 451.921 81.312 C 447.136 83.097, 445.251 84.493, 435.132 93.751 C 430.384 98.094, 423.934 103.283, 420.798 105.281 C 411.231 111.377, 410.051 116.398, 414.944 130.198 C 416.563 134.764, 419.930 145.036, 422.425 153.025 C 424.921 161.014, 428.308 169.671, 429.953 172.264 C 433.536 177.914, 440.755 185.015, 445.533 187.588 C 448.799 189.347, 449 189.754, 449 194.609 C 449 199.684, 448.843 199.949, 438.750 211.982 L 428.500 224.201 406 235.155 C 393.625 241.180, 382.251 247.305, 380.725 248.766 C 379.113 250.309, 377.170 253.953, 376.088 257.461 C 373.932 264.454, 367.650 291.375, 365.871 301.250 L 364.654 308 252.077 308.024 C 178.328 308.040, 137.955 308.405, 135.020 309.081 C 129.130 310.438, 124.224 314.295, 121.913 319.384 C 120.127 323.317, 120.044 327.979, 120.044 424 C 120.044 520.021, 120.127 524.683, 121.913 528.616 C 122.941 530.880, 125.484 534.030, 127.563 535.616 L 131.344 538.500 230.629 538.764 L 329.915 539.029 330.591 542.764 C 332.584 553.773, 340.372 560.629, 348.553 558.576 C 352.806 557.509, 359.657 550.365, 362.115 544.437 L 364.368 539 381.693 539 L 399.017 539 398.444 544.250 C 396.128 565.438, 392.287 608.593, 392.681 609 C 392.947 609.275, 413.318 609.626, 437.950 609.779 L 482.735 610.059 483.318 605.279 C 483.639 602.651, 484.687 587.561, 485.647 571.747 C 486.608 555.932, 487.703 543.332, 488.081 543.747 C 488.459 544.161, 490.934 559.688, 493.579 578.250 L 498.390 612 542.824 612 L 587.258 612 586.661 607.250 C 586.333 604.638, 583.499 575.275, 580.363 542 L 574.661 481.500 575.835 463 C 576.659 450.007, 576.809 425.028, 576.339 379.090 L 575.669 313.680 584.585 322.606 C 594.857 332.891, 602.226 337.113, 611.090 337.790 C 617.698 338.295, 621.710 336.593, 625.323 331.751 C 629.788 325.767, 631.412 318.688, 631.458 305 L 631.500 292.500 617.860 267.947 C 589.670 217.205, 587.384 214, 579.390 214 C 576.424 214, 569.679 212.382, 561.790 209.779 C 550.565 206.074, 549 205.289, 549 203.361 C 549 202.152, 548.752 200.518, 548.450 199.730 C 548.023 198.618, 549.271 198.152, 553.992 197.659 C 566.352 196.367, 580.859 187.128, 588 176.001 C 597.402 161.348, 597.430 139.695, 588.064 125.100 C 581.278 114.525, 571.096 107.253, 558.414 103.925 C 546.941 100.915, 537.296 101.907, 523.750 107.492 C 522.341 108.073, 522 107.696, 522 105.557 C 522 102.441, 519.969 98.187, 517.349 95.816 C 516.328 94.892, 512.119 93.376, 507.996 92.446 C 499.319 90.490, 495.706 88.846, 493.658 85.922 C 491.045 82.191, 484.585 80.694, 469.500 80.322 C 459.534 80.077, 454.469 80.362, 451.921 81.312 M 553.609 144.174 C 544.602 160.713, 543.596 162.168, 542.347 160.460 C 541.593 159.429, 538.467 154.154, 535.401 148.738 C 532.305 143.271, 529.308 139.082, 528.663 139.321 C 528.023 139.557, 527.642 140.369, 527.817 141.125 C 528.494 144.068, 542.400 168, 543.432 168 C 544.545 168, 566.239 129.330, 566.153 127.500 C 566.127 126.950, 565.519 126.390, 564.803 126.256 C 564.036 126.113, 559.434 133.478, 553.609 144.174 M 505.136 180.336 C 504.216 181.445, 504.212 182.370, 505.118 184.359 C 506.672 187.770, 520.985 195.861, 531.814 199.451 C 539.840 202.111, 540.175 202.143, 541.491 200.353 C 542.755 198.634, 542.504 198.447, 538.018 197.771 C 527.915 196.249, 520.054 192.119, 511.416 183.795 C 507.141 179.676, 506.141 179.125, 505.136 180.336 M 130.898 315.270 C 123.548 320.180, 124.003 313, 124.002 424.016 C 124 518.953, 124.085 523.691, 125.852 527.016 C 126.870 528.932, 129.187 531.513, 130.999 532.750 L 134.296 535 320.500 535 L 506.704 535 510.102 532.730 C 517.452 527.820, 516.997 534.999, 516.997 424 C 516.997 313.001, 517.452 320.180, 510.102 315.270 L 506.704 313 320.500 313 L 134.296 313 130.898 315.270 M 471.223 323.557 C 468.527 325.445, 468.342 329.095, 470.829 331.345 C 473.206 333.496, 475.291 333.440, 477.345 331.171 C 479.650 328.625, 479.409 325.400, 476.777 323.557 C 475.555 322.701, 474.305 322, 474 322 C 473.695 322, 472.445 322.701, 471.223 323.557 M 484.301 323.084 C 480.100 324.638, 480.553 331.089, 484.961 332.488 C 489.193 333.831, 493.177 329.067, 491.087 325.163 C 489.847 322.845, 487.167 322.024, 484.301 323.084 M 496.223 323.557 C 494.988 324.421, 494 326.168, 494 327.485 C 494 330.014, 496.355 333, 498.349 333 C 500.754 333, 504 329.841, 504 327.500 C 504 325.473, 500.843 322, 499 322 C 498.695 322, 497.445 322.701, 496.223 323.557 M 145.223 346.557 C 142.421 348.519, 142.201 353.967, 144.829 356.345 C 146.495 357.853, 153.076 358, 218.829 358 C 289.667 358, 291.037 357.963, 293 356 C 295.675 353.325, 295.521 350.430, 292.545 347.455 L 290.091 345 218.768 345 C 155.834 345, 147.184 345.183, 145.223 346.557 M 457.400 378.765 C 456.071 379.652, 454 383.439, 454 384.980 C 454 385.591, 455.105 387.195, 456.455 388.545 C 458.872 390.963, 459.173 391, 476.232 391 C 495.950 391, 498 390.397, 498 384.598 C 498 378.450, 496.517 377.998, 476.421 378.015 C 466.565 378.024, 458.005 378.361, 457.400 378.765 M 143.930 403.584 C 142.977 404.733, 142.904 405.625, 143.667 406.834 C 144.639 408.374, 155.636 408.518, 289.609 408.735 C 369.299 408.865, 448.675 408.640, 466 408.235 C 496.905 407.514, 497.506 407.461, 497.798 405.413 C 498.094 403.343, 497.817 403.320, 464.298 402.664 C 445.709 402.301, 366.318 402.002, 287.872 402.002 C 158.956 402, 145.119 402.152, 143.930 403.584 M 456.746 449.250 C 455.846 449.938, 454.817 451.715, 454.459 453.200 C 453.955 455.293, 454.381 456.472, 456.359 458.450 C 458.896 460.987, 458.996 461, 476.232 461 C 495.950 461, 498 460.397, 498 454.598 C 498 448.451, 496.521 448, 476.362 448 C 463.518 448, 457.915 448.357, 456.746 449.250 M 143.930 473.584 C 142.977 474.733, 142.904 475.625, 143.667 476.834 C 144.626 478.355, 150.025 478.520, 205.609 478.731 C 239.099 478.858, 318.475 478.633, 382 478.231 L 497.500 477.500 497.798 475.416 L 498.096 473.331 374.298 472.666 C 174.193 471.591, 145.489 471.705, 143.930 473.584" stroke="none" fill="#ffffff" fill-rule="evenodd"/><path d="M 505.630 190.250 C 505.299 191.488, 505.021 195.286, 505.014 198.691 C 505.006 202.096, 504.578 205.143, 504.063 205.461 C 503.355 205.898, 448.973 216, 447.326 216 C 446.547 216, 447.095 210.690, 448.060 208.888 C 448.643 207.799, 448.980 205.561, 448.810 203.915 C 448.515 201.067, 448.017 201.499, 438.500 212.856 L 428.500 224.791 404.935 236.289 C 389.168 243.982, 380.838 248.598, 379.765 250.236 C 376.845 254.693, 370.707 278.580, 365.371 306.250 L 364.841 309 436.083 309 L 507.324 309 511.575 311.491 C 513.913 312.861, 516.878 315.674, 518.163 317.741 L 520.500 321.500 520.771 408.250 C 520.921 455.963, 521.233 495, 521.465 495 C 521.696 495, 525.849 493.679, 530.693 492.065 C 541.075 488.605, 554.057 486.059, 565.948 485.152 L 574.500 484.500 575.311 463 C 575.757 451.175, 575.908 412.587, 575.647 377.250 C 575.387 341.913, 575.349 313, 575.564 313 C 575.779 313, 579.638 316.837, 584.140 321.526 C 590.399 328.045, 594.014 330.886, 599.504 333.600 C 608.828 338.208, 613.377 338.812, 619.237 336.219 C 623.189 334.471, 624.198 333.344, 627.119 327.410 C 630.338 320.871, 630.484 320.069, 630.846 306.869 L 631.223 293.133 621.433 275.317 C 607.198 249.412, 597.477 232.558, 591.700 223.765 C 586.309 215.558, 582.760 213.239, 577.214 214.300 C 575.562 214.615, 569.939 213.158, 562.169 210.402 C 555.344 207.981, 549.364 206, 548.880 206 C 548.396 206, 548 208.756, 548 212.125 C 548 219.413, 551.597 228.606, 556.560 234 C 560.428 238.205, 562.508 242.162, 564.033 248.215 L 565.170 252.732 589.311 264.362 C 616.493 277.456, 614.070 275.291, 620.329 292.071 C 626.795 309.408, 627.133 320.858, 621.245 323.097 C 611.844 326.671, 589.426 312.641, 570.326 291.232 C 566.042 286.429, 561.853 282.607, 561.018 282.737 C 560.183 282.867, 556.251 283.483, 552.281 284.104 C 548.310 284.726, 543.519 284.945, 541.634 284.591 C 534.846 283.318, 527.228 272.006, 521.941 255.353 C 519.950 249.079, 519.832 247.820, 520.978 245.053 C 522.362 241.711, 528.351 236.340, 533.750 233.599 C 537.459 231.716, 537.643 230.529, 535.402 222.981 C 533.642 217.054, 534.341 212.661, 538.070 206.219 L 539.969 202.939 537.734 202.102 C 536.505 201.641, 532.575 200.209, 529 198.918 C 525.425 197.628, 519.060 194.643, 514.856 192.286 C 510.652 189.929, 506.992 188, 506.722 188 C 506.453 188, 505.962 189.012, 505.630 190.250 M 144.557 348.223 C 142.462 351.214, 142.597 353.597, 145 356 C 146.963 357.963, 148.333 358, 218.277 358 C 296.787 358, 294 358.220, 294 352.015 C 294 345.674, 298.089 346, 218.485 346 L 146.113 346 144.557 348.223 M 457.223 379.557 C 454.583 381.405, 454.239 386.096, 456.571 388.429 C 457.885 389.742, 461.137 390, 476.416 390 C 492.850 390, 494.857 389.816, 496.345 388.171 C 498.570 385.712, 498.432 382.432, 496 380 C 494.154 378.154, 492.667 378, 476.723 378 C 462.703 378, 459.026 378.294, 457.223 379.557 M 451.999 405.247 L 452 407.994 299.250 408.300 C 159.710 408.580, 161.548 408.596, 320.500 408.480 C 416.200 408.411, 495.310 407.993, 496.299 407.551 C 497.289 407.110, 497.958 406.017, 497.787 405.124 C 497.514 403.700, 494.678 403.438, 474.736 403 L 451.998 402.500 451.999 405.247 M 457.223 449.557 C 454.583 451.405, 454.239 456.096, 456.571 458.429 C 457.885 459.742, 461.137 460, 476.416 460 C 492.850 460, 494.857 459.816, 496.345 458.171 C 498.570 455.712, 498.432 452.432, 496 450 C 494.154 448.154, 492.667 448, 476.723 448 C 462.703 448, 459.026 448.294, 457.223 449.557 M 333 474.994 C 333 476.986, 333.587 477, 415.573 477 C 493.676 477, 498.128 476.905, 497.810 475.250 C 497.492 473.603, 492.645 473.485, 415.236 473.244 C 333.502 472.990, 333 473.001, 333 474.994 M 192.826 478.750 C 218.855 478.898, 261.155 478.898, 286.826 478.750 C 312.497 478.601, 291.200 478.480, 239.500 478.480 C 187.800 478.480, 166.797 478.601, 192.826 478.750 M 228.829 535.750 C 279.611 535.893, 362.411 535.893, 412.829 535.750 C 463.248 535.607, 421.700 535.489, 320.500 535.489 C 219.300 535.489, 178.048 535.607, 228.829 535.750 M 405.250 609.735 C 407.863 609.941, 412.137 609.941, 414.750 609.735 C 417.363 609.529, 415.225 609.360, 410 609.360 C 404.775 609.360, 402.637 609.529, 405.250 609.735" stroke="none" fill="#e6e6e6" fill-rule="evenodd"/><path d="M 505.630 190.250 C 505.299 191.488, 505.021 195.286, 505.014 198.691 C 505.006 202.096, 504.578 205.143, 504.063 205.461 C 503.355 205.898, 448.973 216, 447.326 216 C 446.547 216, 447.095 210.690, 448.060 208.888 C 448.643 207.799, 448.980 205.561, 448.810 203.915 C 448.515 201.067, 448.017 201.499, 438.500 212.856 L 428.500 224.791 404.935 236.289 C 389.168 243.982, 380.838 248.598, 379.765 250.236 C 376.845 254.693, 370.707 278.580, 365.371 306.250 L 364.841 309 436.083 309 L 507.324 309 511.575 311.491 C 513.913 312.861, 516.878 315.674, 518.163 317.741 L 520.500 321.500 520.771 408.250 C 520.921 455.963, 521.233 495, 521.465 495 C 521.696 495, 525.849 493.679, 530.693 492.065 C 541.075 488.605, 554.057 486.059, 565.948 485.152 L 574.500 484.500 575.311 463 C 575.757 451.175, 575.908 412.587, 575.647 377.250 C 575.387 341.913, 575.349 313, 575.564 313 C 575.779 313, 579.638 316.837, 584.140 321.526 C 590.399 328.045, 594.014 330.886, 599.504 333.600 C 608.828 338.208, 613.377 338.812, 619.237 336.219 C 623.189 334.471, 624.198 333.344, 627.119 327.410 C 630.338 320.871, 630.484 320.069, 630.846 306.869 L 631.223 293.133 621.433 275.317 C 607.198 249.412, 597.477 232.558, 591.700 223.765 C 586.309 215.558, 582.760 213.239, 577.214 214.300 C 575.562 214.615, 569.939 213.158, 562.169 210.402 C 555.344 207.981, 549.364 206, 548.880 206 C 548.396 206, 548 208.756, 548 212.125 C 548 219.413, 551.597 228.606, 556.560 234 C 560.428 238.205, 562.508 242.162, 564.033 248.215 L 565.170 252.732 589.311 264.362 C 616.493 277.456, 614.070 275.291, 620.329 292.071 C 626.795 309.408, 627.133 320.858, 621.245 323.097 C 611.844 326.671, 589.426 312.641, 570.326 291.232 C 566.042 286.429, 561.853 282.607, 561.018 282.737 C 560.183 282.867, 556.251 283.483, 552.281 284.104 C 548.310 284.726, 543.519 284.945, 541.634 284.591 C 534.846 283.318, 527.228 272.006, 521.941 255.353 C 519.950 249.079, 519.832 247.820, 520.978 245.053 C 522.362 241.711, 528.351 236.340, 533.750 233.599 C 537.459 231.716, 537.643 230.529, 535.402 222.981 C 533.642 217.054, 534.341 212.661, 538.070 206.219 L 539.969 202.939 537.734 202.102 C 536.505 201.641, 532.575 200.209, 529 198.918 C 525.425 197.628, 519.060 194.643, 514.856 192.286 C 510.652 189.929, 506.992 188, 506.722 188 C 506.453 188, 505.962 189.012, 505.630 190.250 M 144.557 348.223 C 142.462 351.214, 142.597 353.597, 145 356 C 146.963 357.963, 148.333 358, 218.277 358 C 296.787 358, 294 358.220, 294 352.015 C 294 345.674, 298.089 346, 218.485 346 L 146.113 346 144.557 348.223 M 457.223 379.557 C 454.583 381.405, 454.239 386.096, 456.571 388.429 C 457.885 389.742, 461.137 390, 476.416 390 C 492.850 390, 494.857 389.816, 496.345 388.171 C 498.570 385.712, 498.432 382.432, 496 380 C 494.154 378.154, 492.667 378, 476.723 378 C 462.703 378, 459.026 378.294, 457.223 379.557 M 451.999 405.247 L 452 407.994 299.250 408.300 C 159.710 408.580, 161.548 408.596, 320.500 408.480 C 416.200 408.411, 495.310 407.993, 496.299 407.551 C 497.289 407.110, 497.958 406.017, 497.787 405.124 C 497.514 403.700, 494.678 403.438, 474.736 403 L 451.998 402.500 451.999 405.247 M 457.223 449.557 C 454.583 451.405, 454.239 456.096, 456.571 458.429 C 457.885 459.742, 461.137 460, 476.416 460 C 492.850 460, 494.857 459.816, 496.345 458.171 C 498.570 455.712, 498.432 452.432, 496 450 C 494.154 448.154, 492.667 448, 476.723 448 C 462.703 448, 459.026 448.294, 457.223 449.557 M 333 474.994 C 333 476.986, 333.587 477, 415.573 477 C 493.676 477, 498.128 476.905, 497.810 475.250 C 497.492 473.603, 492.645 473.485, 415.236 473.244 C 333.502 472.990, 333 473.001, 333 474.994 M 192.826 478.750 C 218.855 478.898, 261.155 478.898, 286.826 478.750 C 312.497 478.601, 291.200 478.480, 239.500 478.480 C 187.800 478.480, 166.797 478.601, 192.826 478.750 M 228.829 535.750 C 279.611 535.893, 362.411 535.893, 412.829 535.750 C 463.248 535.607, 421.700 535.489, 320.500 535.489 C 219.300 535.489, 178.048 535.607, 228.829 535.750 M 405.250 609.735 C 407.863 609.941, 412.137 609.941, 414.750 609.735 C 417.363 609.529, 415.225 609.360, 410 609.360 C 404.775 609.360, 402.637 609.529, 405.250 609.735" stroke="none" fill="#e6e6e6" fill-rule="evenodd"/><path d="M 505.630 190.250 C 505.299 191.488, 505.021 195.286, 505.014 198.691 C 505.006 202.096, 504.578 205.143, 504.063 205.461 C 503.355 205.898, 448.973 216, 447.326 216 C 446.547 216, 447.095 210.690, 448.060 208.888 C 448.643 207.799, 448.980 205.561, 448.810 203.915 C 448.515 201.067, 448.017 201.499, 438.500 212.856 L 428.500 224.791 404.935 236.289 C 389.168 243.982, 380.838 248.598, 379.765 250.236 C 376.845 254.693, 370.707 278.580, 365.371 306.250 L 364.841 309 436.083 309 L 507.324 309 511.575 311.491 C 513.913 312.861, 516.878 315.674, 518.163 317.741 L 520.500 321.500 520.771 408.250 C 520.921 455.963, 521.233 495, 521.465 495 C 521.696 495, 525.849 493.679, 530.693 492.065 C 541.075 488.605, 554.057 486.059, 565.948 485.152 L 574.500 484.500 575.311 463 C 575.757 451.175, 575.908 412.587, 575.647 377.250 C 575.387 341.913, 575.349 313, 575.564 313 C 575.779 313, 579.638 316.837, 584.140 321.526 C 590.399 328.045, 594.014 330.886, 599.504 333.600 C 608.828 338.208, 613.377 338.812, 619.237 336.219 C 623.189 334.471, 624.198 333.344, 627.119 327.410 C 630.338 320.871, 630.484 320.069, 630.846 306.869 L 631.223 293.133 621.433 275.317 C 607.198 249.412, 597.477 232.558, 591.700 223.765 C 586.309 215.558, 582.760 213.239, 577.214 214.300 C 575.562 214.615, 569.939 213.158, 562.169 210.402 C 555.344 207.981, 549.364 206, 548.880 206 C 548.396 206, 548 208.756, 548 212.125 C 548 219.413, 551.597 228.606, 556.560 234 C 560.428 238.205, 562.508 242.162, 564.033 248.215 L 565.170 252.732 589.311 264.362 C 616.493 277.456, 614.070 275.291, 620.329 292.071 C 626.795 309.408, 627.133 320.858, 621.245 323.097 C 611.844 326.671, 589.426 312.641, 570.326 291.232 C 566.042 286.429, 561.853 282.607, 561.018 282.737 C 560.183 282.867, 556.251 283.483, 552.281 284.104 C 548.310 284.726, 543.519 284.945, 541.634 284.591 C 534.846 283.318, 527.228 272.006, 521.941 255.353 C 519.950 249.079, 519.832 247.820, 520.978 245.053 C 522.362 241.711, 528.351 236.340, 533.750 233.599 C 537.459 231.716, 537.643 230.529, 535.402 222.981 C 533.642 217.054, 534.341 212.661, 538.070 206.219 L 539.969 202.939 537.734 202.102 C 536.505 201.641, 532.575 200.209, 529 198.918 C 525.425 197.628, 519.060 194.643, 514.856 192.286 C 510.652 189.929, 506.992 188, 506.722 188 C 506.453 188, 505.962 189.012, 505.630 190.250 M 144.557 348.223 C 142.462 351.214, 142.597 353.597, 145 356 C 146.963 357.963, 148.333 358, 218.277 358 C 296.787 358, 294 358.220, 294 352.015 C 294 345.674, 298.089 346, 218.485 346 L 146.113 346 144.557 348.223 M 457.223 379.557 C 454.583 381.405, 454.239 386.096, 456.571 388.429 C 457.885 389.742, 461.137 390, 476.416 390 C 492.850 390, 494.857 389.816, 496.345 388.171 C 498.570 385.712, 498.432 382.432, 496 380 C 494.154 378.154, 492.667 378, 476.723 378 C 462.703 378, 459.026 378.294, 457.223 379.557 M 451.999 405.247 L 452 407.994 299.250 408.300 C 159.710 408.580, 161.548 408.596, 320.500 408.480 C 416.200 408.411, 495.310 407.993, 496.299 407.551 C 497.289 407.110, 497.958 406.017, 497.787 405.124 C 497.514 403.700, 494.678 403.438, 474.736 403 L 451.998 402.500 451.999 405.247 M 457.223 449.557 C 454.583 451.405, 454.239 456.096, 456.571 458.429 C 457.885 459.742, 461.137 460, 476.416 460 C 492.850 460, 494.857 459.816, 496.345 458.171 C 498.570 455.712, 498.432 452.432, 496 450 C 494.154 448.154, 492.667 448, 476.723 448 C 462.703 448, 459.026 448.294, 457.223 449.557 M 333 474.994 C 333 476.986, 333.587 477, 415.573 477 C 493.676 477, 498.128 476.905, 497.810 475.250 C 497.492 473.603, 492.645 473.485, 415.236 473.244 C 333.502 472.990, 333 473.001, 333 474.994 M 192.826 478.750 C 218.855 478.898, 261.155 478.898, 286.826 478.750 C 312.497 478.601, 291.200 478.480, 239.500 478.480 C 187.800 478.480, 166.797 478.601, 192.826 478.750 M 228.829 535.750 C 279.611 535.893, 362.411 535.893, 412.829 535.750 C 463.248 535.607, 421.700 535.489, 320.500 535.489 C 219.300 535.489, 178.048 535.607, 228.829 535.750 M 405.250 609.735 C 407.863 609.941, 412.137 609.941, 414.750 609.735 C 417.363 609.529, 415.225 609.360, 410 609.360 C 404.775 609.360, 402.637 609.529, 405.250 609.735" stroke="none" fill="#e6e6e6" fill-rule="evenodd"/><path d="M 534.120 104.579 C 512.408 110.418, 498 128.742, 498 150.516 C 498 163.920, 502.690 174.587, 512.837 184.265 C 540.852 210.981, 587.300 195.881, 594.096 157.849 C 599.983 124.911, 567.103 95.708, 534.120 104.579 M 562.213 127.750 C 561.155 129.262, 556.577 137.363, 552.040 145.750 C 547.503 154.137, 543.632 161, 543.438 161 C 543.244 161, 540.327 156.050, 536.956 150 C 532.481 141.971, 530.309 139, 528.913 139 C 527.825 139, 527 139.691, 527 140.602 C 527 142.624, 541.118 167.768, 542.591 168.370 C 543.191 168.615, 544.118 168.519, 544.653 168.157 C 546.682 166.784, 567.184 127.921, 566.634 126.489 C 565.783 124.270, 564.364 124.675, 562.213 127.750 M 145.011 403.487 C 144.332 404.305, 144.037 405.655, 144.357 406.487 C 144.871 407.828, 162.344 408, 298.469 408 L 452 408 452 405 L 452 402 299.122 402 C 165.033 402, 146.093 402.183, 145.011 403.487 M 145.011 473.487 C 144.332 474.305, 144.037 475.655, 144.357 476.487 C 144.869 477.823, 155.902 478, 238.469 478 L 332 478 332 475 L 332 472 239.122 472 C 158.138 472, 146.087 472.190, 145.011 473.487" stroke="none" fill="#6c63ff" fill-rule="evenodd"/><path d="M 134.128 310.145 C 129.128 311.591, 125.244 314.864, 122.983 319.535 C 121.003 323.625, 120.976 325.267, 121.236 425.168 L 121.500 526.647 123.983 530.270 C 125.348 532.263, 128.273 534.930, 130.483 536.197 L 134.500 538.500 321.250 538.742 C 435.116 538.890, 508 538.623, 508 538.059 C 508 537.087, 511.914 535.445, 513.324 535.827 C 513.778 535.949, 513.962 535.701, 513.733 535.275 C 513.129 534.150, 516.680 531.044, 517.667 531.833 C 518.125 532.200, 518.180 532.105, 517.790 531.623 C 517.399 531.141, 517.737 529.476, 518.540 527.923 C 519.792 525.502, 520 510.652, 520 423.745 L 520 322.392 517.135 317.874 C 515.410 315.154, 512.723 312.588, 510.385 311.428 C 506.594 309.547, 502.015 309.496, 322 309.335 C 204.567 309.230, 136.274 309.524, 134.128 310.145 M 130.990 314.250 C 129.172 315.488, 126.743 317.770, 125.592 319.323 C 123.502 322.145, 123.500 322.221, 123.500 424 C 123.500 525.779, 123.502 525.855, 125.592 528.677 C 126.743 530.230, 129.172 532.513, 130.990 533.750 L 134.296 536 320.500 536 L 506.704 536 510.010 533.750 C 511.828 532.513, 514.257 530.230, 515.408 528.677 C 517.494 525.862, 517.501 525.557, 517.764 425.272 C 518.024 326.218, 517.998 324.627, 516.014 320.529 C 514.725 317.867, 512.600 315.581, 510.114 314.184 L 506.228 312 320.262 312 L 134.296 312 130.990 314.250 M 471.596 324.306 C 467.846 327.048, 471.833 333.848, 475.750 331.393 C 478.213 329.849, 478.578 325.896, 476.404 324.306 C 475.421 323.588, 474.340 323, 474 323 C 473.660 323, 472.579 323.588, 471.596 324.306 M 483.565 324.928 C 481.512 327.197, 482.214 330.616, 484.910 331.472 C 489.364 332.885, 492.514 328.330, 489.435 324.928 C 488.475 323.868, 487.155 323, 486.500 323 C 485.845 323, 484.525 323.868, 483.565 324.928 M 496.750 324.080 C 494.592 325.337, 494.466 329.312, 496.530 331.025 C 497.699 331.995, 498.641 332.029, 500.530 331.168 C 503.582 329.778, 503.900 325.552, 501.066 324.035 C 498.764 322.803, 498.946 322.801, 496.750 324.080 M 470.768 609.725 C 472.565 609.947, 475.265 609.943, 476.768 609.715 C 478.271 609.486, 476.800 609.304, 473.500 609.310 C 470.200 609.315, 468.971 609.502, 470.768 609.725" stroke="none" fill="#3f3d56" fill-rule="evenodd"/><path d="M 0 346.001 L 0 692.003 376.250 691.751 L 752.500 691.500 752.751 345.750 L 753.003 0 376.501 0 L 0 0 0 346.001 M 0.494 346.500 C 0.494 536.800, 0.609 614.501, 0.750 519.169 C 0.891 423.837, 0.891 268.137, 0.750 173.169 C 0.609 78.201, 0.494 156.200, 0.494 346.500 M 451.921 81.312 C 447.136 83.097, 445.251 84.493, 435.132 93.751 C 430.384 98.094, 423.934 103.283, 420.798 105.281 C 411.231 111.377, 410.051 116.398, 414.944 130.198 C 416.563 134.764, 419.930 145.036, 422.425 153.025 C 424.921 161.014, 428.308 169.671, 429.953 172.264 C 433.536 177.914, 440.755 185.015, 445.533 187.588 C 448.799 189.347, 449 189.754, 449 194.609 C 449 199.684, 448.843 199.949, 438.750 211.982 L 428.500 224.201 406 235.155 C 393.625 241.180, 382.251 247.305, 380.725 248.766 C 379.113 250.309, 377.170 253.953, 376.088 257.461 C 373.932 264.454, 367.650 291.375, 365.871 301.250 L 364.654 308 252.077 308.024 C 178.328 308.040, 137.955 308.405, 135.020 309.081 C 129.130 310.438, 124.224 314.295, 121.913 319.384 C 120.127 323.317, 120.044 327.979, 120.044 424 C 120.044 520.021, 120.127 524.683, 121.913 528.616 C 122.941 530.880, 125.484 534.030, 127.563 535.616 L 131.344 538.500 230.629 538.764 L 329.915 539.029 330.591 542.764 C 332.584 553.773, 340.372 560.629, 348.553 558.576 C 352.806 557.509, 359.657 550.365, 362.115 544.437 L 364.368 539 381.693 539 L 399.017 539 398.444 544.250 C 396.128 565.438, 392.287 608.593, 392.681 609 C 392.947 609.275, 413.318 609.626, 437.950 609.779 L 482.735 610.059 483.318 605.279 C 483.639 602.651, 484.687 587.561, 485.647 571.747 C 486.608 555.932, 487.703 543.332, 488.081 543.747 C 488.459 544.161, 490.934 559.688, 493.579 578.250 L 498.390 612 542.824 612 L 587.258 612 586.661 607.250 C 586.333 604.638, 583.499 575.275, 580.363 542 L 574.661 481.500 575.835 463 C 576.659 450.007, 576.809 425.028, 576.339 379.090 L 575.669 313.680 584.585 322.606 C 594.857 332.891, 602.226 337.113, 611.090 337.790 C 617.698 338.295, 621.710 336.593, 625.323 331.751 C 629.788 325.767, 631.412 318.688, 631.458 305 L 631.500 292.500 617.860 267.947 C 589.670 217.205, 587.384 214, 579.390 214 C 576.424 214, 569.679 212.382, 561.790 209.779 C 550.565 206.074, 549 205.289, 549 203.361 C 549 202.152, 548.752 200.518, 548.450 199.730 C 548.023 198.618, 549.271 198.152, 553.992 197.659 C 566.352 196.367, 580.859 187.128, 588 176.001 C 597.402 161.348, 597.430 139.695, 588.064 125.100 C 581.278 114.525, 571.096 107.253, 558.414 103.925 C 546.941 100.915, 537.296 101.907, 523.750 107.492 C 522.341 108.073, 522 107.696, 522 105.557 C 522 102.441, 519.969 98.187, 517.349 95.816 C 516.328 94.892, 512.119 93.376, 507.996 92.446 C 499.319 90.490, 495.706 88.846, 493.658 85.922 C 491.045 82.191, 484.585 80.694, 469.500 80.322 C 459.534 80.077, 454.469 80.362, 451.921 81.312 M 553.609 144.174 C 544.602 160.713, 543.596 162.168, 542.347 160.460 C 541.593 159.429, 538.467 154.154, 535.401 148.738 C 532.305 143.271, 529.308 139.082, 528.663 139.321 C 528.023 139.557, 527.642 140.369, 527.817 141.125 C 528.494 144.068, 542.400 168, 543.432 168 C 544.545 168, 566.239 129.330, 566.153 127.500 C 566.127 126.950, 565.519 126.390, 564.803 126.256 C 564.036 126.113, 559.434 133.478, 553.609 144.174 M 505.136 180.336 C 504.216 181.445, 504.212 182.370, 505.118 184.359 C 506.672 187.770, 520.985 195.861, 531.814 199.451 C 539.840 202.111, 540.175 202.143, 541.491 200.353 C 542.755 198.634, 542.504 198.447, 538.018 197.771 C 527.915 196.249, 520.054 192.119, 511.416 183.795 C 507.141 179.676, 506.141 179.125, 505.136 180.336 M 130.898 315.270 C 123.548 320.180, 124.003 313, 124.002 424.016 C 124 518.953, 124.085 523.691, 125.852 527.016 C 126.870 528.932, 129.187 531.513, 130.999 532.750 L 134.296 535 320.500 535 L 506.704 535 510.102 532.730 C 517.452 527.820, 516.997 534.999, 516.997 424 C 516.997 313.001, 517.452 320.180, 510.102 315.270 L 506.704 313 320.500 313 L 134.296 313 130.898 315.270 M 471.223 323.557 C 468.527 325.445, 468.342 329.095, 470.829 331.345 C 473.206 333.496, 475.291 333.440, 477.345 331.171 C 479.650 328.625, 479.409 325.400, 476.777 323.557 C 475.555 322.701, 474.305 322, 474 322 C 473.695 322, 472.445 322.701, 471.223 323.557 M 484.301 323.084 C 480.100 324.638, 480.553 331.089, 484.961 332.488 C 489.193 333.831, 493.177 329.067, 491.087 325.163 C 489.847 322.845, 487.167 322.024, 484.301 323.084 M 496.223 323.557 C 494.988 324.421, 494 326.168, 494 327.485 C 494 330.014, 496.355 333, 498.349 333 C 500.754 333, 504 329.841, 504 327.500 C 504 325.473, 500.843 322, 499 322 C 498.695 322, 497.445 322.701, 496.223 323.557 M 145.223 346.557 C 142.421 348.519, 142.201 353.967, 144.829 356.345 C 146.495 357.853, 153.076 358, 218.829 358 C 289.667 358, 291.037 357.963, 293 356 C 295.675 353.325, 295.521 350.430, 292.545 347.455 L 290.091 345 218.768 345 C 155.834 345, 147.184 345.183, 145.223 346.557 M 457.400 378.765 C 456.071 379.652, 454 383.439, 454 384.980 C 454 385.591, 455.105 387.195, 456.455 388.545 C 458.872 390.963, 459.173 391, 476.232 391 C 495.950 391, 498 390.397, 498 384.598 C 498 378.450, 496.517 377.998, 476.421 378.015 C 466.565 378.024, 458.005 378.361, 457.400 378.765 M 143.930 403.584 C 142.977 404.733, 142.904 405.625, 143.667 406.834 C 144.639 408.374, 155.636 408.518, 289.609 408.735 C 369.299 408.865, 448.675 408.640, 466 408.235 C 496.905 407.514, 497.506 407.461, 497.798 405.413 C 498.094 403.343, 497.817 403.320, 464.298 402.664 C 445.709 402.301, 366.318 402.002, 287.872 402.002 C 158.956 402, 145.119 402.152, 143.930 403.584 M 456.746 449.250 C 455.846 449.938, 454.817 451.715, 454.459 453.200 C 453.955 455.293, 454.381 456.472, 456.359 458.450 C 458.896 460.987, 458.996 461, 476.232 461 C 495.950 461, 498 460.397, 498 454.598 C 498 448.451, 496.521 448, 476.362 448 C 463.518 448, 457.915 448.357, 456.746 449.250 M 143.930 473.584 C 142.977 474.733, 142.904 475.625, 143.667 476.834 C 144.626 478.355, 150.025 478.520, 205.609 478.731 C 239.099 478.858, 318.475 478.633, 382 478.231 L 497.500 477.500 497.798 475.416 L 498.096 473.331 374.298 472.666 C 174.193 471.591, 145.489 471.705, 143.930 473.584" stroke="none" fill="#ffffff" fill-rule="evenodd"/><path d="M 505.630 190.250 C 505.299 191.488, 505.021 195.286, 505.014 198.691 C 505.006 202.096, 504.578 205.143, 504.063 205.461 C 503.355 205.898, 448.973 216, 447.326 216 C 446.547 216, 447.095 210.690, 448.060 208.888 C 448.643 207.799, 448.980 205.561, 448.810 203.915 C 448.515 201.067, 448.017 201.499, 438.500 212.856 L 428.500 224.791 404.935 236.289 C 389.168 243.982, 380.838 248.598, 379.765 250.236 C 376.845 254.693, 370.707 278.580, 365.371 306.250 L 364.841 309 436.083 309 L 507.324 309 511.575 311.491 C 513.913 312.861, 516.878 315.674, 518.163 317.741 L 520.500 321.500 520.771 408.250 C 520.921 455.963, 521.233 495, 521.465 495 C 521.696 495, 525.849 493.679, 530.693 492.065 C 541.075 488.605, 554.057 486.059, 565.948 485.152 L 574.500 484.500 575.311 463 C 575.757 451.175, 575.908 412.587, 575.647 377.250 C 575.387 341.913, 575.349 313, 575.564 313 C 575.779 313, 579.638 316.837, 584.140 321.526 C 590.399 328.045, 594.014 330.886, 599.504 333.600 C 608.828 338.208, 613.377 338.812, 619.237 336.219 C 623.189 334.471, 624.198 333.344, 627.119 327.410 C 630.338 320.871, 630.484 320.069, 630.846 306.869 L 631.223 293.133 621.433 275.317 C 607.198 249.412, 597.477 232.558, 591.700 223.765 C 586.309 215.558, 582.760 213.239, 577.214 214.300 C 575.562 214.615, 569.939 213.158, 562.169 210.402 C 555.344 207.981, 549.364 206, 548.880 206 C 548.396 206, 548 208.756, 548 212.125 C 548 219.413, 551.597 228.606, 556.560 234 C 560.428 238.205, 562.508 242.162, 564.033 248.215 L 565.170 252.732 589.311 264.362 C 616.493 277.456, 614.070 275.291, 620.329 292.071 C 626.795 309.408, 627.133 320.858, 621.245 323.097 C 611.844 326.671, 589.426 312.641, 570.326 291.232 C 566.042 286.429, 561.853 282.607, 561.018 282.737 C 560.183 282.867, 556.251 283.483, 552.281 284.104 C 548.310 284.726, 543.519 284.945, 541.634 284.591 C 534.846 283.318, 527.228 272.006, 521.941 255.353 C 519.950 249.079, 519.832 247.820, 520.978 245.053 C 522.362 241.711, 528.351 236.340, 533.750 233.599 C 537.459 231.716, 537.643 230.529, 535.402 222.981 C 533.642 217.054, 534.341 212.661, 538.070 206.219 L 539.969 202.939 537.734 202.102 C 536.505 201.641, 532.575 200.209, 529 198.918 C 525.425 197.628, 519.060 194.643, 514.856 192.286 C 510.652 189.929, 506.992 188, 506.722 188 C 506.453 188, 505.962 189.012, 505.630 190.250 M 144.557 348.223 C 142.462 351.214, 142.597 353.597, 145 356 C 146.963 357.963, 148.333 358, 218.277 358 C 296.787 358, 294 358.220, 294 352.015 C 294 345.674, 298.089 346, 218.485 346 L 146.113 346 144.557 348.223 M 457.223 379.557 C 454.583 381.405, 454.239 386.096, 456.571 388.429 C 457.885 389.742, 461.137 390, 476.416 390 C 492.850 390, 494.857 389.816, 496.345 388.171 C 498.570 385.712, 498.432 382.432, 496 380 C 494.154 378.154, 492.667 378, 476.723 378 C 462.703 378, 459.026 378.294, 457.223 379.557 M 451.999 405.247 L 452 407.994 299.250 408.300 C 159.710 408.580, 161.548 408.596, 320.500 408.480 C 416.200 408.411, 495.310 407.993, 496.299 407.551 C 497.289 407.110, 497.958 406.017, 497.787 405.124 C 497.514 403.700, 494.678 403.438, 474.736 403 L 451.998 402.500 451.999 405.247 M 457.223 449.557 C 454.583 451.405, 454.239 456.096, 456.571 458.429 C 457.885 459.742, 461.137 460, 476.416 460 C 492.850 460, 494.857 459.816, 496.345 458.171 C 498.570 455.712, 498.432 452.432, 496 450 C 494.154 448.154, 492.667 448, 476.723 448 C 462.703 448, 459.026 448.294, 457.223 449.557 M 333 474.994 C 333 476.986, 333.587 477, 415.573 477 C 493.676 477, 498.128 476.905, 497.810 475.250 C 497.492 473.603, 492.645 473.485, 415.236 473.244 C 333.502 472.990, 333 473.001, 333 474.994 M 192.826 478.750 C 218.855 478.898, 261.155 478.898, 286.826 478.750 C 312.497 478.601, 291.200 478.480, 239.500 478.480 C 187.800 478.480, 166.797 478.601, 192.826 478.750 M 228.829 535.750 C 279.611 535.893, 362.411 535.893, 412.829 535.750 C 463.248 535.607, 421.700 535.489, 320.500 535.489 C 219.300 535.489, 178.048 535.607, 228.829 535.750 M 405.250 609.735 C 407.863 609.941, 412.137 609.941, 414.750 609.735 C 417.363 609.529, 415.225 609.360, 410 609.360 C 404.775 609.360, 402.637 609.529, 405.250 609.735" stroke="none" fill="#e6e6e6" fill-rule="evenodd"/><path d="M 497.286 150.500 C 497.294 153.250, 497.488 154.256, 497.718 152.736 C 497.947 151.216, 497.941 148.966, 497.704 147.736 C 497.467 146.506, 497.279 147.750, 497.286 150.500 M 497.742 185.712 C 486.854 193.691, 470.319 196.238, 456.839 192.013 C 453.353 190.920, 450.441 190.020, 450.369 190.013 C 450.297 190.006, 449.939 194.387, 449.574 199.750 C 449.208 205.113, 448.669 210.738, 448.375 212.250 C 448.010 214.131, 448.261 215.011, 449.171 215.034 C 449.902 215.052, 462.498 212.942, 477.163 210.344 L 503.826 205.620 504.413 202.685 C 505.472 197.391, 505.053 185.449, 503.750 183.804 C 502.639 182.401, 501.970 182.613, 497.742 185.712 M 517.481 424 C 517.481 478.175, 517.602 500.337, 517.750 473.250 C 517.898 446.162, 517.898 401.837, 517.750 374.750 C 517.602 347.662, 517.481 369.825, 517.481 424 M 423.250 609.735 C 425.863 609.941, 430.137 609.941, 432.750 609.735 C 435.363 609.529, 433.225 609.360, 428 609.360 C 422.775 609.360, 420.637 609.529, 423.250 609.735" stroke="none" fill="#e6a4a4" fill-rule="evenodd"/><path d="M 505.630 190.250 C 505.299 191.488, 505.021 195.286, 505.014 198.691 C 505.006 202.096, 504.578 205.143, 504.063 205.461 C 503.355 205.898, 448.973 216, 447.326 216 C 446.547 216, 447.095 210.690, 448.060 208.888 C 448.643 207.799, 448.980 205.561, 448.810 203.915 C 448.515 201.067, 448.017 201.499, 438.500 212.856 L 428.500 224.791 404.935 236.289 C 389.168 243.982, 380.838 248.598, 379.765 250.236 C 376.845 254.693, 370.707 278.580, 365.371 306.250 L 364.841 309 436.083 309 L 507.324 309 511.575 311.491 C 513.913 312.861, 516.878 315.674, 518.163 317.741 L 520.500 321.500 520.771 408.250 C 520.921 455.963, 521.233 495, 521.465 495 C 521.696 495, 525.849 493.679, 530.693 492.065 C 541.075 488.605, 554.057 486.059, 565.948 485.152 L 574.500 484.500 575.311 463 C 575.757 451.175, 575.908 412.587, 575.647 377.250 C 575.387 341.913, 575.349 313, 575.564 313 C 575.779 313, 579.638 316.837, 584.140 321.526 C 590.399 328.045, 594.014 330.886, 599.504 333.600 C 608.828 338.208, 613.377 338.812, 619.237 336.219 C 623.189 334.471, 624.198 333.344, 627.119 327.410 C 630.338 320.871, 630.484 320.069, 630.846 306.869 L 631.223 293.133 621.433 275.317 C 607.198 249.412, 597.477 232.558, 591.700 223.765 C 586.309 215.558, 582.760 213.239, 577.214 214.300 C 575.562 214.615, 569.939 213.158, 562.169 210.402 C 555.344 207.981, 549.364 206, 548.880 206 C 548.396 206, 548 208.756, 548 212.125 C 548 219.413, 551.597 228.606, 556.560 234 C 560.428 238.205, 562.508 242.162, 564.033 248.215 L 565.170 252.732 589.311 264.362 C 616.493 277.456, 614.070 275.291, 620.329 292.071 C 626.795 309.408, 627.133 320.858, 621.245 323.097 C 611.844 326.671, 589.426 312.641, 570.326 291.232 C 566.042 286.429, 561.853 282.607, 561.018 282.737 C 560.183 282.867, 556.251 283.483, 552.281 284.104 C 548.310 284.726, 543.519 284.945, 541.634 284.591 C 534.846 283.318, 527.228 272.006, 521.941 255.353 C 519.950 249.079, 519.832 247.820, 520.978 245.053 C 522.362 241.711, 528.351 236.340, 533.750 233.599 C 537.459 231.716, 537.643 230.529, 535.402 222.981 C 533.642 217.054, 534.341 212.661, 538.070 206.219 L 539.969 202.939 537.734 202.102 C 536.505 201.641, 532.575 200.209, 529 198.918 C 525.425 197.628, 519.060 194.643, 514.856 192.286 C 510.652 189.929, 506.992 188, 506.722 188 C 506.453 188, 505.962 189.012, 505.630 190.250 M 144.557 348.223 C 142.462 351.214, 142.597 353.597, 145 356 C 146.963 357.963, 148.333 358, 218.277 358 C 296.787 358, 294 358.220, 294 352.015 C 294 345.674, 298.089 346, 218.485 346 L 146.113 346 144.557 348.223 M 457.223 379.557 C 454.583 381.405, 454.239 386.096, 456.571 388.429 C 457.885 389.742, 461.137 390, 476.416 390 C 492.850 390, 494.857 389.816, 496.345 388.171 C 498.570 385.712, 498.432 382.432, 496 380 C 494.154 378.154, 492.667 378, 476.723 378 C 462.703 378, 459.026 378.294, 457.223 379.557 M 451.999 405.247 L 452 407.994 299.250 408.300 C 159.710 408.580, 161.548 408.596, 320.500 408.480 C 416.200 408.411, 495.310 407.993, 496.299 407.551 C 497.289 407.110, 497.958 406.017, 497.787 405.124 C 497.514 403.700, 494.678 403.438, 474.736 403 L 451.998 402.500 451.999 405.247 M 457.223 449.557 C 454.583 451.405, 454.239 456.096, 456.571 458.429 C 457.885 459.742, 461.137 460, 476.416 460 C 492.850 460, 494.857 459.816, 496.345 458.171 C 498.570 455.712, 498.432 452.432, 496 450 C 494.154 448.154, 492.667 448, 476.723 448 C 462.703 448, 459.026 448.294, 457.223 449.557 M 333 474.994 C 333 476.986, 333.587 477, 415.573 477 C 493.676 477, 498.128 476.905, 497.810 475.250 C 497.492 473.603, 492.645 473.485, 415.236 473.244 C 333.502 472.990, 333 473.001, 333 474.994 M 192.826 478.750 C 218.855 478.898, 261.155 478.898, 286.826 478.750 C 312.497 478.601, 291.200 478.480, 239.500 478.480 C 187.800 478.480, 166.797 478.601, 192.826 478.750 M 228.829 535.750 C 279.611 535.893, 362.411 535.893, 412.829 535.750 C 463.248 535.607, 421.700 535.489, 320.500 535.489 C 219.300 535.489, 178.048 535.607, 228.829 535.750 M 405.250 609.735 C 407.863 609.941, 412.137 609.941, 414.750 609.735 C 417.363 609.529, 415.225 609.360, 410 609.360 C 404.775 609.360, 402.637 609.529, 405.250 609.735" stroke="none" fill="#e6e6e6" fill-rule="evenodd"/><path d="M 458.119 81.102 C 450.499 82.064, 446.554 84.452, 436 94.494 C 431.875 98.418, 425.987 103.235, 422.916 105.196 C 415.872 109.695, 413 113.303, 413 117.650 C 413 119.509, 415.505 128.560, 418.566 137.765 L 424.133 154.500 429.476 154.500 L 434.818 154.500 435.400 150.880 C 436.206 145.866, 451.461 116.023, 454.678 113.166 C 458.096 110.131, 462.726 110.501, 481.434 115.306 C 498.004 119.561, 500.375 120.995, 500.816 127.023 L 501.132 131.346 503.978 126.362 C 506.705 121.588, 518.092 110, 520.057 110 C 521.545 110, 521.156 103.202, 519.483 99.967 C 517.661 96.443, 514.493 94.755, 506.500 93.048 C 499.281 91.506, 495.369 89.606, 492.011 86.012 C 490.119 83.986, 487.889 83.046, 482.998 82.213 C 473.307 80.561, 465.252 80.202, 458.119 81.102 M 551 487.682 C 546.325 488.505, 537.663 490.736, 531.750 492.639 L 521 496.100 521 510.082 C 521 528.259, 519.298 532.764, 510.790 537.106 C 507.947 538.557, 504.935 539, 497.909 539 L 488.738 539 489.257 542.250 C 489.542 544.038, 491.936 560.462, 494.578 578.750 L 499.382 612 542.691 612 C 566.511 612, 586 611.772, 586 611.492 C 586 609.903, 574.951 493.775, 574.464 490.250 L 573.877 486 566.689 486.093 C 562.735 486.144, 555.675 486.860, 551 487.682 M 399.545 543.250 C 398.651 549.840, 393.116 608.449, 393.365 608.698 C 393.487 608.820, 413.461 609.050, 437.753 609.210 L 481.920 609.500 482.456 604.500 C 482.751 601.750, 483.669 588.250, 484.495 574.500 C 485.321 560.750, 486.255 547.138, 486.571 544.250 L 487.144 539 443.633 539 L 400.123 539 399.545 543.250" stroke="none" fill="#2f2e41" fill-rule="evenodd"/><path d="M 457.076 112.752 C 454.135 114.253, 452.395 116.970, 444.750 132 C 436.210 148.790, 435.870 149.713, 436.352 154.750 C 436.905 160.514, 436.470 161.367, 434.979 157.445 C 434.099 155.130, 433.561 154.919, 429.254 155.195 C 424.687 155.488, 424.512 155.612, 424.802 158.338 C 424.968 159.900, 426.138 163.500, 427.403 166.338 C 439.152 192.716, 473.797 202.374, 497.607 185.910 C 500.298 184.048, 502.950 182.670, 503.500 182.846 C 504.050 183.022, 504.162 182.828, 503.748 182.414 C 503.334 182.001, 503.666 180.922, 504.484 180.017 C 505.816 178.546, 505.607 177.638, 502.512 171.433 C 497.528 161.443, 496.218 151.965, 498.359 141.398 C 499.262 136.944, 500 130.993, 500 128.173 C 500 121.492, 498.768 120.701, 481.736 116.442 C 474.456 114.621, 466.928 112.652, 465.007 112.066 C 460.623 110.728, 461.123 110.685, 457.076 112.752 M 541.095 201.699 C 539.370 203.789, 537.018 207.975, 535.868 211 C 533.857 216.287, 533.838 216.739, 535.388 222.664 C 537.579 231.042, 537.480 231.705, 533.750 233.599 C 528.351 236.340, 522.362 241.711, 520.978 245.053 C 519.832 247.820, 519.950 249.079, 521.941 255.353 C 527.228 272.006, 534.846 283.318, 541.634 284.591 C 543.519 284.945, 548.310 284.726, 552.281 284.104 C 556.251 283.483, 560.183 282.867, 561.018 282.737 C 561.853 282.607, 566.042 286.429, 570.326 291.232 C 589.426 312.641, 611.844 326.671, 621.245 323.097 C 627.133 320.858, 626.795 309.408, 620.329 292.071 C 614.070 275.291, 616.493 277.456, 589.311 264.362 L 565.170 252.732 564.037 248.232 C 562.538 242.279, 559.792 237.057, 556.586 234.065 C 555.151 232.726, 552.776 229.126, 551.308 226.065 C 549.096 221.452, 548.542 218.619, 548.070 209.510 C 547.406 196.711, 546.264 195.432, 541.095 201.699 M 331.414 543.189 C 332.859 552.221, 338.368 558, 345.536 558 C 352.180 558, 358.487 552.319, 362.467 542.750 L 364.027 539 347.386 539 L 330.744 539 331.414 543.189" stroke="none" fill="#ffb6b6" fill-rule="evenodd"/><path d="M 631.320 304 C 631.320 307.575, 631.502 309.038, 631.723 307.250 C 631.945 305.462, 631.945 302.538, 631.723 300.750 C 631.502 298.962, 631.320 300.425, 631.320 304 M 195.250 308.750 C 226.463 308.897, 277.538 308.897, 308.750 308.750 C 339.963 308.603, 314.425 308.483, 252 308.483 C 189.575 308.483, 164.038 308.603, 195.250 308.750 M 229.329 312.750 C 279.835 312.893, 362.185 312.893, 412.329 312.750 C 462.473 312.607, 421.150 312.489, 320.500 312.489 C 219.850 312.489, 178.823 312.607, 229.329 312.750 M 575.409 329.500 C 575.408 338.850, 575.558 342.810, 575.743 338.299 C 575.928 333.789, 575.929 326.139, 575.745 321.299 C 575.562 316.460, 575.410 320.150, 575.409 329.500 M 183.323 345.750 C 203.026 345.901, 234.976 345.901, 254.323 345.750 C 273.671 345.598, 257.550 345.474, 218.500 345.474 C 179.450 345.474, 163.621 345.598, 183.323 345.750 M 468.299 390.745 C 473.139 390.929, 480.789 390.928, 485.299 390.743 C 489.810 390.558, 485.850 390.408, 476.500 390.409 C 467.150 390.410, 463.460 390.562, 468.299 390.745 M 576.360 443 C 576.360 448.225, 576.529 450.363, 576.735 447.750 C 576.941 445.137, 576.941 440.863, 576.735 438.250 C 576.529 435.637, 576.360 437.775, 576.360 443 M 468.299 460.745 C 473.139 460.929, 480.789 460.928, 485.299 460.743 C 489.810 460.558, 485.850 460.408, 476.500 460.409 C 467.150 460.410, 463.460 460.562, 468.299 460.745 M 373.750 477.750 C 396.438 477.900, 433.563 477.900, 456.250 477.750 C 478.938 477.600, 460.375 477.477, 415 477.477 C 369.625 477.477, 351.063 477.600, 373.750 477.750" stroke="none" fill="#f7f7ff" fill-rule="evenodd"/><path d="M 534.120 104.579 C 512.408 110.418, 498 128.742, 498 150.516 C 498 163.920, 502.690 174.587, 512.837 184.265 C 540.852 210.981, 587.300 195.881, 594.096 157.849 C 599.983 124.911, 567.103 95.708, 534.120 104.579 M 562.213 127.750 C 561.155 129.262, 556.577 137.363, 552.040 145.750 C 547.503 154.137, 543.632 161, 543.438 161 C 543.244 161, 540.327 156.050, 536.956 150 C 532.481 141.971, 530.309 139, 528.913 139 C 527.825 139, 527 139.691, 527 140.602 C 527 142.624, 541.118 167.768, 542.591 168.370 C 543.191 168.615, 544.118 168.519, 544.653 168.157 C 546.682 166.784, 567.184 127.921, 566.634 126.489 C 565.783 124.270, 564.364 124.675, 562.213 127.750 M 145.011 403.487 C 144.332 404.305, 144.037 405.655, 144.357 406.487 C 144.871 407.828, 162.344 408, 298.469 408 L 452 408 452 405 L 452 402 299.122 402 C 165.033 402, 146.093 402.183, 145.011 403.487 M 145.011 473.487 C 144.332 474.305, 144.037 475.655, 144.357 476.487 C 144.869 477.823, 155.902 478, 238.469 478 L 332 478 332 475 L 332 472 239.122 472 C 158.138 472, 146.087 472.190, 145.011 473.487" stroke="none" fill="#6c63ff" fill-rule="evenodd"/><path d="" stroke="none" fill="#42407d" fill-rule="evenodd"/><path d="M 576.405 418.500 C 576.406 427.300, 576.559 430.766, 576.745 426.203 C 576.930 421.639, 576.929 414.439, 576.742 410.203 C 576.555 405.966, 576.404 409.700, 576.405 418.500 M 575.300 462 C 575.300 465.025, 575.487 466.262, 575.716 464.750 C 575.945 463.238, 575.945 460.762, 575.716 459.250 C 575.487 457.738, 575.300 458.975, 575.300 462" stroke="none" fill="#faf8f8" fill-rule="evenodd"/></svg>