<?xml version="1.0" standalone="no"?>
<!DOCTYPE svg PUBLIC "-//W3C//DTD SVG 20010904//EN"
 "http://www.w3.org/TR/2001/REC-SVG-20010904/DTD/svg10.dtd">
<svg version="1.0" xmlns="http://www.w3.org/2000/svg"
 width="3000.000000pt" height="3000.000000pt" viewBox="0 0 3000.000000 3000.000000"
 preserveAspectRatio="xMidYMid meet">

<g transform="translate(0.000000,3000.000000) scale(0.100000,-0.100000)"
fill="#000000" stroke="none">
<path d="M13535 26809 c-803 -803 -1451 -1458 -1440 -1455 174 50 837 190
1025 217 l85 12 918 916 917 916 928 -927 927 -926 50 -7 c102 -13 547 -106
759 -159 l219 -54 -1464 1464 c-805 805 -1464 1464 -1464 1464 0 0 -657 -657
-1460 -1461z"/>
<path d="M14500 25530 c-770 -38 -1485 -140 -2180 -311 -1976 -489 -3714
-1503 -5063 -2954 -1920 -2066 -2888 -4882 -2736 -7960 108 -2192 816 -4229
2042 -5875 308 -414 563 -707 951 -1096 315 -314 518 -497 834 -750 1393
-1113 3092 -1848 4922 -2129 1193 -183 2439 -172 3618 30 1851 319 3538 1094
4919 2262 437 369 904 844 1269 1289 1285 1567 2080 3549 2288 5699 66 680 73
1472 21 2155 -190 2449 -1121 4660 -2674 6355 -167 182 -511 523 -681 675
-1338 1197 -2946 2004 -4755 2385 -503 106 -1024 175 -1615 215 -209 14 -943
20 -1160 10z m1218 -555 c2 -2 -26 -244 -62 -537 -36 -293 -66 -559 -66 -592
0 -83 17 -131 67 -186 58 -65 129 -93 238 -94 134 -2 220 54 265 171 12 33 41
230 86 598 37 303 71 554 75 559 8 9 528 -49 538 -60 8 -8 -132 -1100 -150
-1173 -11 -41 -38 -113 -60 -160 -34 -71 -57 -102 -129 -172 -70 -70 -103 -95
-171 -127 -112 -54 -177 -66 -344 -65 -301 0 -609 87 -743 208 -64 58 -133
153 -167 230 -29 64 -55 215 -55 314 0 54 124 1114 135 1147 2 7 89 0 271 -23
147 -19 270 -36 272 -38z m-1309 -17 c6 -29 81 -413 166 -853 86 -440 158
-807 161 -816 4 -14 -28 -23 -216 -59 -121 -24 -222 -41 -225 -39 -2 2 -59
289 -127 637 -86 445 -125 624 -130 605 -4 -15 -23 -316 -43 -668 -20 -351
-37 -641 -39 -642 -6 -6 -391 -81 -396 -77 -3 1 -134 273 -290 603 -157 330
-286 596 -288 592 -1 -5 51 -285 118 -623 66 -338 120 -621 120 -629 0 -10
-58 -25 -217 -56 -119 -23 -219 -40 -222 -38 -10 10 -341 1729 -334 1735 14
12 697 140 704 133 4 -5 112 -228 241 -498 l233 -489 32 548 c17 301 33 549
35 551 5 5 661 133 685 134 18 1 23 -7 32 -51z m3718 -469 c428 -133 781 -244
784 -248 6 -5 -113 -406 -123 -417 -3 -2 -123 32 -267 77 -144 45 -263 80
-265 78 -2 -2 -90 -285 -196 -629 -107 -344 -196 -628 -199 -631 -3 -4 -123
30 -266 75 -195 61 -259 85 -257 96 1 8 89 294 195 635 l193 620 -130 42 c-72
23 -191 60 -263 83 -73 23 -133 46 -133 52 0 6 28 100 62 210 39 124 66 198
74 198 8 0 363 -108 791 -241z m-6751 -1160 c217 -435 394 -792 392 -794 -2
-2 -106 -54 -233 -117 l-230 -115 -435 244 c-239 134 -468 262 -508 285 l-73
40 215 -431 216 -431 -231 -116 c-127 -63 -232 -114 -234 -112 -2 2 -181 359
-398 794 l-395 790 228 114 c199 99 232 112 252 103 13 -6 241 -133 507 -282
266 -149 486 -269 488 -267 2 2 -91 193 -206 425 -116 231 -211 424 -211 429
0 7 436 230 452 231 5 1 186 -355 404 -790z m9361 -13 c5 -4 -202 -386 -209
-386 -4 0 -113 56 -242 125 -129 69 -238 125 -243 125 -4 -1 -125 -222 -268
-492 -143 -270 -283 -532 -310 -584 l-50 -93 -235 125 c-129 68 -238 128 -242
132 -4 4 132 271 303 591 235 442 307 586 297 593 -7 4 -112 60 -233 125 -121
64 -225 120 -231 125 -8 6 18 64 87 193 54 102 100 189 103 194 4 6 1455 -755
1473 -773z m-5312 -506 c1594 -86 3047 -601 4260 -1510 1303 -977 2232 -2347
2689 -3965 360 -1276 411 -2749 141 -4092 -400 -1983 -1516 -3677 -3143 -4767
-1017 -681 -2193 -1106 -3447 -1245 -346 -38 -493 -46 -930 -46 -517 0 -834
22 -1275 91 -2836 438 -5097 2308 -6015 4974 -477 1386 -574 3011 -269 4505
389 1903 1443 3546 2977 4638 1187 845 2610 1334 4122 1416 223 12 674 12 890
1z m6224 -196 c121 -102 223 -188 225 -192 4 -7 -617 -1768 -628 -1779 -3 -4
-16 3 -29 14 -12 11 -109 93 -214 182 -106 89 -193 167 -193 174 0 7 25 68 55
136 30 68 55 128 55 132 0 6 -355 310 -452 387 -14 11 -33 2 -139 -68 -67 -45
-128 -79 -135 -76 -29 11 -423 351 -415 359 15 15 1626 917 1638 917 6 0 111
-84 232 -186z m-12286 -389 c444 -258 807 -473 807 -477 0 -10 -428 -358 -440
-358 -6 0 -63 36 -127 80 -64 44 -119 80 -122 80 -5 0 -449 -357 -478 -384 -2
-1 22 -60 52 -131 30 -70 56 -134 57 -141 4 -16 -423 -367 -433 -356 -3 4
-140 405 -304 891 -199 591 -295 889 -289 898 16 24 449 373 460 371 5 -2 373
-214 817 -473z m13292 -880 c120 -26 269 -108 376 -207 151 -141 301 -386 350
-573 26 -103 29 -270 5 -370 -61 -253 -287 -496 -600 -646 -126 -60 -242 -89
-359 -89 l-89 0 7 -102 c4 -57 11 -123 15 -148 5 -25 7 -46 5 -48 -7 -7 -339
-52 -344 -46 -3 3 -8 106 -10 229 -3 220 -4 224 -26 239 -125 82 -297 291
-387 471 -113 223 -129 467 -45 675 76 188 228 351 452 486 97 58 217 109 308
128 84 19 256 19 342 1z m-15196 -16 c24 -5 77 -25 118 -44 l74 -34 -137 -203
c-75 -112 -142 -208 -148 -215 -9 -10 -25 -8 -76 8 -45 14 -78 18 -107 14 -84
-12 -186 -110 -215 -207 -17 -58 4 -116 53 -142 52 -28 94 -13 198 71 222 179
312 248 388 294 255 155 479 144 668 -33 118 -110 173 -228 182 -388 7 -125
-13 -214 -75 -343 -68 -141 -157 -262 -292 -397 -180 -180 -274 -226 -465
-224 -123 1 -225 28 -322 84 l-53 30 146 219 146 219 56 -26 c121 -55 231 -40
323 45 71 67 109 138 109 207 0 96 -51 155 -139 164 -68 6 -144 -32 -264 -130
-281 -232 -449 -318 -618 -318 -202 0 -384 145 -439 350 -16 60 -14 202 5 275
39 155 199 402 358 551 145 136 245 183 392 183 50 0 110 -4 134 -10z m-634
-1889 c435 -182 793 -335 797 -338 6 -6 -180 -463 -193 -477 -3 -3 -250 -54
-550 -115 -299 -61 -552 -114 -563 -118 -13 -6 94 -55 407 -186 233 -98 430
-182 438 -186 9 -6 -11 -65 -86 -244 -55 -130 -102 -236 -106 -236 -9 0 -1619
676 -1625 683 -6 5 181 456 194 469 5 5 253 58 553 118 299 61 554 114 566
118 17 5 -76 48 -417 191 -242 102 -440 189 -440 195 0 6 43 115 97 243 89
214 98 231 117 223 12 -4 377 -157 811 -340z m17214 -97 c56 -134 101 -246
101 -251 0 -8 -1606 -682 -1626 -682 -9 0 -214 475 -214 498 0 5 206 95 458
200 251 106 617 259 812 340 195 82 358 146 362 143 3 -3 52 -115 107 -248z
m356 -915 c8 -40 33 -154 55 -253 l39 -179 -147 -155 c-503 -528 -650 -686
-644 -689 4 -1 214 43 466 98 252 55 461 99 463 97 5 -5 112 -501 109 -504 -5
-5 -1700 -373 -1717 -373 -12 0 -27 53 -69 250 l-54 250 25 28 c14 15 185 196
380 402 195 207 362 385 372 397 l18 21 -38 -8 c-261 -59 -871 -190 -884 -190
-12 0 -26 50 -68 246 -29 135 -50 248 -47 252 5 5 1676 376 1718 381 4 1 14
-32 23 -71z m-18305 -1024 c454 -101 830 -186 836 -188 8 -3 -8 -90 -47 -267
-33 -144 -61 -265 -64 -268 -6 -6 -1699 369 -1717 380 -8 5 7 90 48 273 l59
266 30 -6 c17 -3 401 -89 855 -190z m18271 -4695 c177 -43 209 -53 205 -67 -3
-10 -77 -314 -166 -677 -88 -363 -164 -663 -168 -666 -5 -5 -1709 407 -1719
415 -2 2 126 529 131 533 1 2 288 -67 636 -152 348 -85 639 -155 646 -155 8 0
47 140 110 398 100 411 103 422 111 422 2 0 99 -23 214 -51z m-17361 -92 c0
-2 41 -118 90 -257 50 -139 88 -255 86 -257 -12 -12 -1662 -591 -1667 -585 -9
9 -179 490 -179 505 0 11 1625 595 1658 596 6 1 12 -1 12 -2z m265 -996 c68
-33 106 -61 165 -120 120 -118 257 -345 317 -525 24 -71 27 -97 27 -216 l1
-135 -38 -79 c-30 -63 -55 -97 -118 -159 -67 -66 -83 -77 -94 -66 -7 8 -71
107 -142 220 l-129 205 43 48 c80 89 88 184 26 299 -51 92 -127 134 -194 107
-74 -31 -78 -95 -21 -297 115 -400 129 -599 53 -760 -56 -118 -180 -220 -321
-264 -83 -25 -240 -27 -320 -3 -190 56 -345 200 -484 449 -124 223 -180 427
-158 573 14 88 62 195 126 279 52 68 173 171 185 157 16 -18 271 -425 271
-432 0 -4 -23 -29 -52 -57 -101 -98 -124 -212 -66 -336 67 -147 199 -209 296
-140 79 56 83 142 19 391 -58 224 -69 290 -68 425 0 216 77 350 251 440 71 37
113 45 226 42 108 -2 112 -3 199 -46z m15733 -347 c180 -36 439 -170 578 -297
187 -173 261 -351 252 -605 -6 -152 -33 -255 -108 -407 -198 -403 -455 -579
-819 -562 -146 6 -252 36 -416 116 -527 257 -682 714 -419 1234 143 285 330
455 568 517 90 24 258 26 364 4z m-14729 -1091 c94 -115 170 -211 168 -214 -1
-4 -230 -194 -509 -423 -280 -230 -508 -420 -508 -424 0 -4 119 -152 265 -329
146 -177 265 -324 265 -327 0 -10 -331 -277 -339 -274 -4 2 -206 244 -448 538
l-440 535 21 22 c34 35 1338 1103 1347 1103 4 0 85 -93 178 -207z m13576 -634
c236 -42 542 -271 702 -527 114 -183 147 -415 87 -621 -43 -151 -158 -325
-315 -476 -213 -206 -400 -286 -639 -272 -130 8 -199 26 -316 82 -232 112
-473 357 -556 566 -59 148 -73 344 -35 484 44 160 142 319 290 472 248 255
484 344 782 292z m-12184 -844 c118 -101 218 -191 223 -198 5 -9 -101 -310
-314 -888 -177 -480 -326 -878 -330 -882 -4 -5 -104 76 -223 178 l-216 187 18
41 c10 23 37 83 60 133 22 51 41 96 41 101 0 8 -442 395 -459 401 -4 1 -63
-34 -131 -77 -104 -67 -126 -78 -140 -68 -9 7 -105 89 -214 182 -192 166 -196
170 -174 185 38 26 1622 888 1634 889 5 1 107 -82 225 -184z m11161 -1010
c269 -400 488 -730 488 -731 0 -6 -449 -304 -457 -304 -5 0 -93 129 -198 286
-104 158 -195 288 -201 291 -13 5 -483 -306 -484 -320 0 -4 85 -135 190 -292
104 -156 191 -289 192 -294 2 -6 -98 -78 -222 -161 -176 -117 -227 -147 -236
-137 -25 26 -967 1440 -968 1453 0 7 100 81 223 163 l225 150 164 -247 c90
-136 168 -251 173 -256 6 -6 104 54 252 155 l244 164 -169 252 c-92 139 -168
256 -168 260 1 12 443 303 455 300 5 -2 229 -331 497 -732z m-10077 175 c165
-95 304 -176 308 -180 6 -5 -209 -810 -279 -1043 -5 -15 130 119 632 632 l131
134 309 -178 c170 -98 311 -179 313 -181 3 -3 -849 -1487 -874 -1521 -11 -15
-34 -4 -204 93 -105 60 -191 113 -191 118 0 6 541 951 633 1106 12 19 -104
-93 -258 -250 -153 -157 -369 -376 -480 -487 l-200 -202 -170 99 c-93 54 -171
105 -173 112 -1 8 77 297 173 642 97 345 175 630 173 632 -2 2 -148 -246 -324
-551 -175 -305 -323 -554 -329 -554 -17 0 -380 216 -380 225 0 14 878 1533
884 1530 3 -2 141 -81 306 -176z m7828 -646 c120 -31 264 -120 361 -224 41
-43 46 -54 35 -65 -8 -7 -100 -71 -206 -142 l-191 -131 -39 40 c-21 22 -60 52
-88 66 -43 23 -62 27 -135 27 -71 0 -94 -4 -142 -27 -122 -57 -191 -166 -191
-303 -1 -171 132 -481 249 -584 96 -85 218 -93 353 -25 132 68 176 156 169
335 -3 90 -2 99 14 99 10 0 122 9 249 20 128 12 234 18 237 15 13 -13 5 -272
-11 -336 -54 -219 -180 -366 -412 -479 -202 -99 -360 -142 -530 -142 -154 -1
-276 40 -423 141 -237 163 -416 519 -430 852 -7 195 30 331 132 473 126 177
385 330 659 390 88 20 265 20 340 0z m-5921 -323 c128 -49 241 -92 251 -96 9
-4 17 -11 17 -16 0 -9 -620 -1639 -626 -1648 -1 -1 -118 41 -259 95 -233 89
-256 100 -251 118 13 49 622 1636 628 1636 3 0 111 -40 240 -89z m4172 -250
c81 -29 146 -73 206 -138 54 -59 139 -219 124 -233 -10 -9 -462 -130 -486
-130 -8 0 -22 15 -30 34 -27 55 -76 103 -123 122 -62 23 -165 16 -230 -16
-114 -57 -127 -173 -23 -215 33 -13 92 -19 263 -26 416 -16 559 -54 691 -184
103 -101 147 -216 146 -375 -1 -253 -153 -456 -423 -564 -165 -67 -457 -115
-616 -102 -164 14 -255 55 -369 170 -67 67 -89 98 -128 176 -25 53 -46 105
-46 116 0 17 18 24 123 52 67 17 180 47 250 66 l128 35 24 -54 c32 -72 94
-138 157 -165 110 -47 284 -7 346 79 43 59 48 102 20 159 -44 90 -101 109
-373 122 -338 18 -497 62 -623 175 -102 92 -157 259 -132 404 39 235 224 393
552 475 154 39 209 45 368 42 117 -3 156 -8 204 -25z m-2806 -111 c323 -66
513 -206 611 -452 26 -65 66 -226 59 -233 -2 -2 -114 -7 -250 -12 l-246 -8
-13 59 c-33 156 -172 255 -343 244 -106 -7 -196 -61 -253 -151 -95 -150 -147
-509 -94 -647 39 -102 131 -170 262 -191 152 -24 273 49 354 216 15 30 31 55
35 55 19 0 440 -223 440 -233 0 -19 -70 -139 -116 -198 -96 -125 -236 -218
-384 -255 -90 -23 -329 -15 -455 14 -351 82 -521 212 -640 489 -150 347 -22
922 256 1153 108 90 237 148 374 170 90 14 286 4 403 -20z"/>
<path d="M14938 22379 l-2 -194 -6 179 -5 178 -185 -836 c-101 -461 -187 -841
-190 -845 -3 -5 -106 -59 -230 -121 -439 -220 -813 -427 -1140 -633 -672 -422
-1245 -850 -1593 -1187 -490 -474 -773 -878 -1016 -1447 -145 -342 -210 -635
-197 -895 13 -268 98 -644 221 -980 43 -117 157 -391 174 -417 7 -10 61 21
237 133 126 81 230 153 232 160 1 7 -26 50 -60 97 -75 100 -139 234 -203 419
-90 263 -123 433 -131 675 -5 150 -4 182 16 274 72 352 249 717 560 1160 396
565 744 900 1539 1484 567 416 1262 828 1676 992 66 26 121 48 122 49 0 0 41
182 89 404 48 221 90 402 93 402 3 0 44 -174 90 -388 46 -213 89 -392 95 -398
6 -6 40 -21 76 -34 176 -62 574 -267 910 -468 365 -218 874 -577 1285 -905
451 -361 749 -675 1056 -1113 314 -448 461 -747 551 -1114 30 -124 30 -127 25
-325 -8 -266 -38 -421 -139 -705 -68 -193 -141 -343 -207 -431 -34 -44 -61
-86 -61 -93 0 -7 104 -79 231 -161 182 -117 233 -145 240 -134 20 31 140 324
188 457 104 291 185 616 212 852 32 286 -21 610 -155 944 -179 444 -419 841
-705 1166 -313 356 -547 567 -1051 944 -330 247 -861 598 -1225 809 -191 110
-560 307 -812 432 l-221 110 -187 845 c-103 465 -189 847 -191 849 -2 2 -5
-83 -6 -190z"/>
<path d="M9480 14254 c-734 -421 -1341 -768 -1348 -773 -8 -4 1353 -473 3370
-1160 1861 -635 3396 -1160 3412 -1167 35 -17 50 -17 74 -4 9 6 1504 516 3322
1134 1818 618 3348 1139 3401 1157 l97 34 -1329 765 c-731 421 -1339 769
-1351 773 -18 7 -487 -148 -2090 -692 -1136 -386 -2074 -701 -2083 -701 -9 0
-938 315 -2063 700 -1126 385 -2054 700 -2062 699 -8 0 -616 -345 -1350 -765z
m3322 -205 c1057 -375 1927 -685 1933 -690 10 -10 -94 -1752 -107 -1771 -4 -8
-971 314 -2878 958 -1870 630 -2867 972 -2859 977 13 8 1982 1204 1986 1206 1
1 867 -305 1925 -680z m7279 85 c541 -328 990 -602 997 -608 11 -10 -10 -21
-105 -54 -500 -174 -5609 -1892 -5617 -1889 -7 2 -31 315 -67 888 -30 486 -54
885 -53 887 1 2 870 311 1931 687 1060 376 1928 684 1929 684 1 1 444 -267
985 -595z"/>
<path d="M7702 13198 l-183 -121 423 -147 c727 -253 1336 -471 2823 -1010
1216 -441 1783 -644 2385 -856 289 -102 561 -198 605 -214 l80 -29 -180 0
c-99 0 -272 4 -385 10 -245 13 -205 14 -470 -5 -118 -9 -408 -27 -645 -41
-711 -42 -1012 -69 -1920 -171 -750 -84 -1187 -131 -1355 -147 -128 -11 -135
-13 -138 -35 l-3 -22 168 0 c92 0 1374 16 2848 35 1474 20 2901 35 3170 35
270 0 1696 -15 3170 -35 1474 -19 2756 -35 2848 -35 l168 0 -3 23 c-3 20 -10
23 -93 30 -134 12 -653 68 -1355 146 -956 107 -1252 134 -1965 176 -236 14
-527 32 -645 41 -265 19 -225 18 -470 5 -113 -6 -286 -10 -385 -10 l-180 0 80
29 c44 16 285 101 535 189 579 203 1209 429 2580 926 1435 520 2419 871 2999
1069 l125 43 -55 35 c-30 19 -114 74 -188 122 -92 60 -140 86 -155 83 -11 -2
-1573 -552 -3471 -1222 -1897 -670 -3471 -1224 -3496 -1233 l-46 -15 -3505
1237 c-1928 680 -3511 1236 -3519 1235 -8 0 -96 -55 -197 -121z"/>
<path d="M21065 22079 c-143 -93 -261 -173 -262 -177 -2 -7 278 -244 283 -239
9 9 251 587 245 586 -3 0 -123 -77 -266 -170z"/>
<path d="M8612 22121 c2 -5 55 -136 118 -290 76 -186 119 -280 127 -277 7 3
73 55 148 117 l137 111 -261 174 c-144 96 -263 174 -267 174 -3 0 -4 -4 -2 -9z"/>
<path d="M22489 20836 c-176 -51 -426 -241 -489 -371 -36 -74 -35 -198 1 -275
15 -30 43 -73 63 -95 l37 -40 -5 100 c-3 55 -8 109 -11 121 -6 19 0 22 82 38
48 10 98 20 109 23 36 8 56 -67 62 -230 l4 -139 37 7 c121 23 338 158 446 277
72 79 100 146 100 238 0 64 -5 85 -31 140 -43 90 -93 143 -167 180 -74 36
-168 47 -238 26z"/>
<path d="M22624 10739 c-170 -65 -267 -283 -203 -454 68 -182 473 -397 671
-356 191 40 327 260 274 444 -32 110 -137 206 -331 302 -175 86 -302 106 -411
64z"/>
<path d="M21493 9041 c-69 -23 -128 -66 -174 -123 -88 -112 -101 -237 -39
-366 25 -51 58 -91 139 -173 118 -117 195 -172 289 -206 126 -46 239 -22 342
74 84 77 125 162 125 258 0 110 -40 181 -179 321 -124 125 -209 185 -304 214
-79 24 -131 25 -199 1z"/>
<path d="M9078 8172 c-147 -92 -267 -169 -268 -172 0 -7 257 -229 273 -236 9
-3 52 84 140 283 69 158 125 288 124 289 -1 1 -122 -73 -269 -164z"/>
<path d="M5600 22318 l0 -2063 85 153 c128 229 263 452 417 684 l138 209 0
1234 0 1235 1229 0 c1185 0 1229 1 1252 19 105 82 538 357 799 508 l145 83
-2033 0 -2032 0 0 -2062z"/>
<path d="M20310 24375 c0 -2 19 -14 43 -26 137 -70 586 -351 802 -502 l109
-77 1278 0 1278 0 0 -1321 0 -1321 109 -172 c132 -209 261 -428 375 -641 l86
-160 0 2113 0 2112 -2040 0 c-1122 0 -2040 -2 -2040 -5z"/>
<path d="M25203 18049 c31 -93 155 -642 201 -888 l25 -134 1023 -1024 1023
-1023 -1012 -1012 -1013 -1013 -29 -165 c-40 -218 -94 -481 -137 -659 -19 -79
-33 -145 -31 -147 1 -2 681 675 1510 1504 l1507 1507 -1536 1535 c-845 844
-1534 1528 -1531 1519z"/>
<path d="M3210 16505 l-1495 -1495 1470 -1470 c808 -808 1470 -1468 1471
-1467 1 1 -13 67 -32 147 -45 190 -117 558 -145 740 l-22 145 -936 938 -936
937 943 943 944 944 34 192 c43 245 91 471 155 730 27 112 48 205 47 207 -2 2
-676 -669 -1498 -1491z"/>
<path d="M24357 9643 c-75 -153 -287 -518 -444 -764 l-93 -147 0 -1276 0
-1276 -1215 0 -1216 0 -132 -94 c-176 -124 -403 -274 -572 -377 l-138 -84
1918 -3 c1055 -1 1920 -1 1922 1 2 2 2 921 1 2041 l-3 2038 -28 -59z"/>
<path d="M5600 7612 l0 -1992 1912 0 1912 0 -150 91 c-183 112 -397 252 -571
375 l-132 94 -1166 0 -1165 0 0 1189 0 1189 -129 194 c-149 224 -293 461 -421
690 l-90 162 0 -1992z"/>
<path d="M17630 4449 c-164 -41 -424 -94 -650 -135 l-195 -34 -872 -873 -873
-872 -867 866 -868 866 -95 12 c-186 25 -667 119 -900 177 -16 4 475 -494
1338 -1357 l1362 -1364 1372 1373 c755 754 1371 1372 1368 1371 -3 -1 -57 -14
-120 -30z"/>
</g>
</svg>
